<svg xmlns="http://www.w3.org/2000/svg" viewBox="0 0 512 512" class="brand-large"><path d="M8 26A18 18 0 0126 8h460a18 18 0 0118 18v460a18 18 0 01-18 18h-49a30 30 0 01-60 0H135a30 30 0 01-60 0H26a18 18 0 01-18-18zm16-2v464h464V24zm16 64V58a18 18 0 0118-18h396a18 18 0 0118 18v396a18 18 0 01-18 18H58a18 18 0 01-18-18v-30h16v32h400V56H56v32zm0 80h16v176H40zM8 88h80v80H8zm16 16v48h48v-48zM8 344h80v80H8zm16 16v48h48v-48zm392-115a90 90 0 10-128 0v112a64 64 0 00128 0zm-8 112a56 56 0 01-8 29V115a82 82 0 018 126v116m-112 0V241a82 82 0 018-126v271a56 56 0 01-8-29m85-232h-12a8 8 0 00-8 8v27h7a8 8 0 010 16h-7v37a24 24 0 01-24 24h-12a8 8 0 010-16h12a8 8 0 008-8v-37h-7a8 8 0 010-16h7v-27a24 24 0 0124-24h12a8 8 0 010 16m-273 67a20 12 0 0040 0 20 12 0 00-40 0m48 0a20 12 0 0040 0 20 12 0 00-40 0m48 0a20 12 0 0040 0 20 12 0 00-40 0m-96 32a20 12 0 0040 0 20 12 0 00-40 0m48 0a20 12 0 0040 0 20 12 0 00-40 0m48 0a20 12 0 0040 0 20 12 0 00-40 0m-96 32a20 12 0 0040 0 20 12 0 00-40 0m48 0a20 12 0 0040 0 20 12 0 00-40 0m48 0a20 12 0 0040 0 20 12 0 00-40 0m-48 32a20 12 0 0040 0 20 12 0 00-40 0"/></svg>